<?xml version="1.0" encoding="UTF-8" standalone="no"?>
<svg
   xmlns:dc="http://purl.org/dc/elements/1.1/"
   xmlns:cc="http://creativecommons.org/ns#"
   xmlns:rdf="http://www.w3.org/1999/02/22-rdf-syntax-ns#"
   xmlns:svg="http://www.w3.org/2000/svg"
   xmlns="http://www.w3.org/2000/svg"
   xmlns:sodipodi="http://sodipodi.sourceforge.net/DTD/sodipodi-0.dtd"
   xmlns:inkscape="http://www.inkscape.org/namespaces/inkscape"
   color-rendering="auto"
   color-interpolation="auto"
   text-rendering="auto"
   width="152.08051"
   stroke-miterlimit="10"
   shape-rendering="auto"
   font-weight="normal"
   height="127.81779"
   font-style="normal"
   font-size="12"
   image-rendering="auto"
   id="svg3470"
   version="1.1"
   inkscape:version="0.48.4 r9939"
   sodipodi:docname="interaction.svg"
   style="font-size:12px;font-style:normal;font-weight:normal;fill:#000000;fill-opacity:1;stroke:#000000;stroke-width:1;stroke-linecap:square;stroke-linejoin:miter;stroke-miterlimit:10;stroke-opacity:1;stroke-dasharray:none;stroke-dashoffset:0;font-family:Dialog">
  <metadata
     id="metadata3534">
    <rdf:RDF>
      <cc:Work
         rdf:about="">
        <dc:format>image/svg+xml</dc:format>
        <dc:type
           rdf:resource="http://purl.org/dc/dcmitype/StillImage" />
        <dc:title></dc:title>
      </cc:Work>
    </rdf:RDF>
  </metadata>
  <sodipodi:namedview
     pagecolor="#ffffff"
     bordercolor="#666666"
     borderopacity="1"
     objecttolerance="10"
     gridtolerance="10"
     guidetolerance="10"
     inkscape:pageopacity="0"
     inkscape:pageshadow="2"
     inkscape:window-width="1920"
     inkscape:window-height="1025"
     id="namedview3532"
     showgrid="false"
     fit-margin-top="0"
     fit-margin-left="0"
     fit-margin-right="0"
     fit-margin-bottom="0"
     inkscape:zoom="3.025641"
     inkscape:cx="50.905747"
     inkscape:cy="56.763587"
     inkscape:window-x="0"
     inkscape:window-y="27"
     inkscape:window-maximized="1"
     inkscape:current-layer="g3473" />
  <!--Generated by ySVG 2.5-->
  <defs
     id="genericDefs">
    <clipPath
       clipPathUnits="userSpaceOnUse"
       id="clipPath2-3">
      <path
         d="m 362,182 146,0 0,156 -146,0 0,-156 z"
         id="path3480-6"
         inkscape:connector-curvature="0" />
    </clipPath>
    <clipPath
       clipPathUnits="userSpaceOnUse"
       id="clipPath3117">
      <path
         d="m 362,182 146,0 0,156 -146,0 0,-156 z"
         id="path3119"
         inkscape:connector-curvature="0" />
    </clipPath>
    <clipPath
       clipPathUnits="userSpaceOnUse"
       id="clipPath3121">
      <path
         d="m 362,182 146,0 0,156 -146,0 0,-156 z"
         id="path3123"
         inkscape:connector-curvature="0" />
    </clipPath>
    <clipPath
       clipPathUnits="userSpaceOnUse"
       id="clipPath3125">
      <path
         d="m 362,182 146,0 0,156 -146,0 0,-156 z"
         id="path3127"
         inkscape:connector-curvature="0" />
    </clipPath>
    <clipPath
       clipPathUnits="userSpaceOnUse"
       id="clipPath3129">
      <path
         d="m 362,182 146,0 0,156 -146,0 0,-156 z"
         id="path3131"
         inkscape:connector-curvature="0" />
    </clipPath>
    <clipPath
       clipPathUnits="userSpaceOnUse"
       id="clipPath3133">
      <path
         d="m 362,182 146,0 0,156 -146,0 0,-156 z"
         id="path3135"
         inkscape:connector-curvature="0" />
    </clipPath>
    <clipPath
       clipPathUnits="userSpaceOnUse"
       id="clipPath3137">
      <path
         d="m 362,182 146,0 0,156 -146,0 0,-156 z"
         id="path3139"
         inkscape:connector-curvature="0" />
    </clipPath>
    <clipPath
       clipPathUnits="userSpaceOnUse"
       id="clipPath3141">
      <path
         d="m 362,182 146,0 0,156 -146,0 0,-156 z"
         id="path3143"
         inkscape:connector-curvature="0" />
    </clipPath>
  </defs>
  <g
     id="g3473"
     transform="translate(-14.75,-14.75)">
    <defs
       id="defs1">
      <clipPath
         clipPathUnits="userSpaceOnUse"
         id="clipPath1">
        <path
           d="M 0,0 146,0 146,156 0,156 0,0 z"
           id="path3477"
           inkscape:connector-curvature="0" />
      </clipPath>
      <clipPath
         clipPathUnits="userSpaceOnUse"
         id="clipPath2">
        <path
           d="m 362,182 146,0 0,156 -146,0 0,-156 z"
           id="path3480"
           inkscape:connector-curvature="0" />
      </clipPath>
    </defs>
    <g
       text-rendering="geometricPrecision"
       shape-rendering="geometricPrecision"
       transform="translate(-362,-182)"
       id="g3482"
       style="fill:#ffffff;stroke:#ffffff">
      <rect
         x="362"
         width="146"
         height="156"
         y="182"
         clip-path="url(#clipPath2)"
         id="rect3484"
         style="stroke:none" />
    </g>
    <g
       text-rendering="geometricPrecision"
       stroke-miterlimit="1.45"
       shape-rendering="geometricPrecision"
       transform="translate(-362,-182)"
       id="g3486"
       style="stroke-width:1.5;stroke-linecap:butt;stroke-miterlimit:1.45000005;stroke-dasharray:none;font-family:sans-serif">
      <text
         x="386.7012"
         xml:space="preserve"
         y="214.1543"
         clip-path="url(#clipPath2)"
         id="text3488"
         style="stroke:none"><tspan
           style="font-size:18px;font-family:CMU Serif;-inkscape-font-specification:CMU Serif"
           id="tspan3536">c</tspan></text>
      <circle
         r="12.5"
         clip-path="url(#clipPath2)"
         cx="390"
         cy="210"
         id="circle3490"
         d="m 402.5,210 c 0,6.90356 -5.59644,12.5 -12.5,12.5 -6.90356,0 -12.5,-5.59644 -12.5,-12.5 0,-6.90356 5.59644,-12.5 12.5,-12.5 6.90356,0 12.5,5.59644 12.5,12.5 z"
         style="fill:none;stroke-width:1.5;stroke-miterlimit:1.45000005;stroke-dasharray:none"
         sodipodi:cx="390"
         sodipodi:cy="210"
         sodipodi:rx="12.5"
         sodipodi:ry="12.5" />
      <text
         x="431.19141"
         xml:space="preserve"
         y="244.1543"
         clip-path="url(#clipPath2)"
         id="text3492"
         transform="translate(-2,0)"
         style="stroke:none"><tspan
           style="font-size:18px;font-family:CMU Serif;-inkscape-font-specification:CMU Serif"
           id="tspan3540">b</tspan></text>
      <circle
         r="12.5"
         clip-path="url(#clipPath2)"
         cx="435"
         cy="240"
         id="circle3494"
         d="m 447.5,240 c 0,6.90356 -5.59644,12.5 -12.5,12.5 -6.90356,0 -12.5,-5.59644 -12.5,-12.5 0,-6.90356 5.59644,-12.5 12.5,-12.5 6.90356,0 12.5,5.59644 12.5,12.5 z"
         style="fill:none;stroke-width:1.5;stroke-miterlimit:1.45000005;stroke-dasharray:none"
         sodipodi:cx="435"
         sodipodi:cy="240"
         sodipodi:rx="12.5"
         sodipodi:ry="12.5" />
      <text
         x="476.32321"
         xml:space="preserve"
         y="214.1543"
         clip-path="url(#clipPath2)"
         id="text3496"
         style="stroke:none"><tspan
           style="font-size:18px;font-family:CMU Serif;-inkscape-font-specification:CMU Serif"
           id="tspan3538">a</tspan></text>
      <circle
         r="12.5"
         clip-path="url(#clipPath2)"
         cx="480"
         cy="210"
         id="circle3498"
         d="m 492.5,210 c 0,6.90356 -5.59644,12.5 -12.5,12.5 -6.90356,0 -12.5,-5.59644 -12.5,-12.5 0,-6.90356 5.59644,-12.5 12.5,-12.5 6.90356,0 12.5,5.59644 12.5,12.5 z"
         style="fill:none;stroke-width:1.5;stroke-miterlimit:1.45000005;stroke-dasharray:none"
         sodipodi:cx="480"
         sodipodi:cy="210"
         sodipodi:rx="12.5"
         sodipodi:ry="12.5" />
      <text
         x="386.19141"
         xml:space="preserve"
         y="314.1543"
         clip-path="url(#clipPath2)"
         id="text3508"
         transform="translate(-2,0)"
         style="stroke:none"><tspan
           style="font-size:18px;font-family:CMU Serif;-inkscape-font-specification:CMU Serif"
           id="tspan3544">d</tspan></text>
      <circle
         r="12.5"
         clip-path="url(#clipPath2)"
         cx="390"
         cy="310"
         id="circle3510"
         d="m 402.5,310 c 0,6.90356 -5.59644,12.5 -12.5,12.5 -6.90356,0 -12.5,-5.59644 -12.5,-12.5 0,-6.90356 5.59644,-12.5 12.5,-12.5 6.90356,0 12.5,5.59644 12.5,12.5 z"
         style="fill:none;stroke-width:1.5;stroke-miterlimit:1.45000005;stroke-dasharray:none"
         sodipodi:cx="390"
         sodipodi:cy="310"
         sodipodi:rx="12.5"
         sodipodi:ry="12.5" />
      <path
         d="m 400.4006,216.9337 24.1988,16.1326"
         clip-path="url(#clipPath2)"
         id="path3512"
         style="fill:none;stroke:#002255;stroke-width:1.5;stroke-miterlimit:1.45000005;stroke-dasharray:none"
         inkscape:connector-curvature="0" />
      <path
         d="m 469.5994,216.9337 -24.1988,16.1326"
         clip-path="url(#clipPath2)"
         id="path3516"
         style="fill:none;stroke:#002255;stroke-width:1.5;stroke-miterlimit:1.45000005;stroke-dasharray:none"
         inkscape:connector-curvature="0" />
      <path
         d="m 390,222.5 0,75"
         clip-path="url(#clipPath2)"
         id="path3524"
         style="fill:none;stroke:#002255;stroke-width:1.5;stroke-miterlimit:1.45000005;stroke-dasharray:none"
         inkscape:connector-curvature="0" />
      <path
         d="m 428.2405,250.5147 -31.481,48.9706"
         clip-path="url(#clipPath2)"
         id="path3528"
         style="fill:none;stroke:#002255;stroke-width:1.5;stroke-miterlimit:1.45000005;stroke-dasharray:none"
         inkscape:connector-curvature="0" />
      <text
         x="431.19141"
         xml:space="preserve"
         y="244.1543"
         clip-path="url(#clipPath2-3)"
         id="text3492-7"
         transform="translate(33.580509,1.3177963)"
         style="font-size:12px;font-style:normal;font-weight:normal;fill:#000000;fill-opacity:1;stroke:none;font-family:sans-serif"><tspan
           style="font-size:18px;font-family:CMU Serif;-inkscape-font-specification:CMU Serif"
           id="tspan3540-5">b</tspan></text>
      <circle
         transform="translate(35.580509,1.3177963)"
         r="12.5"
         clip-path="url(#clipPath2-3)"
         cx="435"
         cy="240"
         id="circle3494-3"
         d="m 447.5,240 c 0,6.90356 -5.59644,12.5 -12.5,12.5 -6.90356,0 -12.5,-5.59644 -12.5,-12.5 0,-6.90356 5.59644,-12.5 12.5,-12.5 6.90356,0 12.5,5.59644 12.5,12.5 z"
         style="font-size:12px;font-style:normal;font-weight:normal;fill:none;stroke:#000000;stroke-width:1.5;stroke-linecap:butt;stroke-linejoin:miter;stroke-miterlimit:1.45000005;stroke-opacity:1;stroke-dasharray:none;stroke-dashoffset:0;font-family:sans-serif"
         sodipodi:cx="435"
         sodipodi:cy="240"
         sodipodi:rx="12.5"
         sodipodi:ry="12.5" />
      <text
         transform="translate(35.580509,1.3177963)"
         x="431.30859"
         xml:space="preserve"
         y="284.1543"
         clip-path="url(#clipPath2-3)"
         id="text3500-5"
         style="font-size:12px;font-style:normal;font-weight:normal;fill:#000000;fill-opacity:1;stroke:none;font-family:sans-serif"><tspan
           style="font-size:18px;font-family:CMU Serif;-inkscape-font-specification:CMU Serif"
           id="tspan3542-6">e</tspan></text>
      <circle
         transform="translate(35.580509,1.3177963)"
         r="12.5"
         clip-path="url(#clipPath2-3)"
         cx="435"
         cy="280"
         id="circle3502-2"
         d="m 447.5,280 c 0,6.90356 -5.59644,12.5 -12.5,12.5 -6.90356,0 -12.5,-5.59644 -12.5,-12.5 0,-6.90356 5.59644,-12.5 12.5,-12.5 6.90356,0 12.5,5.59644 12.5,12.5 z"
         style="font-size:12px;font-style:normal;font-weight:normal;fill:none;stroke:#000000;stroke-width:1.5;stroke-linecap:butt;stroke-linejoin:miter;stroke-miterlimit:1.45000005;stroke-opacity:1;stroke-dasharray:none;stroke-dashoffset:0;font-family:sans-serif"
         sodipodi:cx="435"
         sodipodi:cy="280"
         sodipodi:rx="12.5"
         sodipodi:ry="12.5" />
      <text
         x="477.8877"
         xml:space="preserve"
         y="314.1543"
         clip-path="url(#clipPath2-3)"
         id="text3504-9"
         transform="translate(33.580509,3.3177963)"
         style="font-size:12px;font-style:normal;font-weight:normal;fill:#000000;fill-opacity:1;stroke:none;font-family:sans-serif"><tspan
           style="font-size:18px;font-family:CMU Serif;-inkscape-font-specification:CMU Serif"
           id="tspan3546-1">f</tspan></text>
      <circle
         transform="translate(35.580509,1.3177963)"
         r="12.5"
         clip-path="url(#clipPath2-3)"
         cx="480"
         cy="310"
         id="circle3506-2"
         d="m 492.5,310 c 0,6.90356 -5.59644,12.5 -12.5,12.5 -6.90356,0 -12.5,-5.59644 -12.5,-12.5 0,-6.90356 5.59644,-12.5 12.5,-12.5 6.90356,0 12.5,5.59644 12.5,12.5 z"
         style="font-size:12px;font-style:normal;font-weight:normal;fill:none;stroke:#000000;stroke-width:1.5;stroke-linecap:butt;stroke-linejoin:miter;stroke-miterlimit:1.45000005;stroke-opacity:1;stroke-dasharray:none;stroke-dashoffset:0;font-family:sans-serif"
         sodipodi:cx="480"
         sodipodi:cy="310"
         sodipodi:rx="12.5"
         sodipodi:ry="12.5" />
      <path
         transform="translate(35.580509,1.3177963)"
         d="m 435,252.5 0,15"
         clip-path="url(#clipPath2-3)"
         id="path3518-7"
         style="font-size:12px;font-style:normal;font-weight:normal;fill:none;stroke:#002255;stroke-width:1.5;stroke-linecap:butt;stroke-linejoin:miter;stroke-miterlimit:1.45000005;stroke-opacity:1;stroke-dasharray:none;stroke-dashoffset:0;font-family:sans-serif"
         inkscape:connector-curvature="0" />
      <path
         transform="translate(35.580509,1.3177963)"
         d="m 445.4006,286.9337 24.1988,16.1326"
         clip-path="url(#clipPath2-3)"
         id="path3522-0"
         style="font-size:12px;font-style:normal;font-weight:normal;fill:none;stroke:#002255;stroke-width:1.5;stroke-linecap:butt;stroke-linejoin:miter;stroke-miterlimit:1.45000005;stroke-opacity:1;stroke-dasharray:none;stroke-dashoffset:0;font-family:sans-serif"
         inkscape:connector-curvature="0" />
    </g>
  </g>
</svg>
